<svg width="30" height="30" viewBox="0 0 30 30" fill="none" xmlns="http://www.w3.org/2000/svg">
<path d="M18.75 8.75L11.0431 10.952C10.662 11.0609 10.4714 11.1153 10.314 11.2177C10.1746 11.3083 10.0547 11.4258 9.96133 11.5632C9.85583 11.7186 9.79754 11.908 9.68097 12.2869L5 27.5M5 27.5L20.2131 22.819C20.592 22.7025 20.7814 22.6442 20.9368 22.5387C21.0742 22.4453 21.1917 22.3254 21.2823 22.186C21.3847 22.0286 21.4391 21.838 21.548 21.4569L23.75 13.75M5 27.5L13.2325 19.2674M6.25 10V2.5M2.5 6.25H10M27.3358 9.83579L22.6642 5.16421C22.1692 4.66919 21.9217 4.42168 21.6363 4.32895C21.3852 4.24737 21.1148 4.24737 20.8637 4.32895C20.5783 4.42168 20.3308 4.66919 19.8358 5.16421L18.9142 6.08579C18.4192 6.58081 18.1717 6.82832 18.0789 7.11373C17.9974 7.36478 17.9974 7.63522 18.0789 7.88627C18.1717 8.17168 18.4192 8.41919 18.9142 8.91421L23.5858 13.5858C24.0808 14.0808 24.3283 14.3283 24.6137 14.4211C24.8648 14.5026 25.1352 14.5026 25.3863 14.4211C25.6717 14.3283 25.9192 14.0808 26.4142 13.5858L27.3358 12.6642C27.8308 12.1692 28.0783 11.9217 28.1711 11.6363C28.2526 11.3852 28.2526 11.1148 28.1711 10.8637C28.0783 10.5783 27.8308 10.3308 27.3358 9.83579ZM15 15C16.3807 15 17.5 16.1193 17.5 17.5C17.5 18.8807 16.3807 20 15 20C13.6193 20 12.5 18.8807 12.5 17.5C12.5 16.1193 13.6193 15 15 15Z" stroke="black" stroke-width="2" stroke-linecap="round" stroke-linejoin="round"/>
</svg>
